<?xml version="1.0" encoding="utf-8"?>
<!-- Generator: Adobe Illustrator 27.6.1, SVG Export Plug-In . SVG Version: 6.00 Build 0)  -->
<svg version="1.1" id="Layer_1" xmlns="http://www.w3.org/2000/svg" xmlns:xlink="http://www.w3.org/1999/xlink" x="0px" y="0px"
	 viewBox="0 0 139 99" style="enable-background:new 0 0 139 99;" xml:space="preserve">
<style type="text/css">
	.st0{fill:none;stroke:#9BBCFF;stroke-width:2;}
	.st1{fill:none;stroke:#A0BFFF;stroke-width:2;}
	.st2{fill:none;stroke:#3C7CFF;stroke-width:2;}
	.st3{fill:#407FFF;}
	.st4{fill:#3778FE;}
	.st5{fill:#FFFFFF;}
</style>
<g>
	<path vector-effect="non-scaling-stroke" class="st0" d="M73,54.9c0.9,1,1.9,1.2,3,0.4c5.4-3.8,9.6-6.9,12.3-9.4
		c7.6-6.8,12.9-19.1,5.2-28.1c-3.3-3.9-8-5.2-14-4.1"/>
	<path vector-effect="non-scaling-stroke" class="st1" d="M79.5,13.7l-4.4,2.2c-0.3,0.1-0.6,0.1-0.8,0C65,10.4,55.2,14,52.6,24.1
		C49.2,37.5,63.2,48.7,73,54.9"/>
	<path vector-effect="non-scaling-stroke" class="st2" d="M79.5,13.7c-0.6,1.2-0.7,2.2-0.3,3c0.1,0.3,0.1,0.5,0,0.8l-0.7,1.1
		c-0.1,0.2-0.2,0.5-0.1,0.7c0.5,1.6-0.4,3.4-2.8,5.1"/>
	<path vector-effect="non-scaling-stroke" class="st1" d="M75.6,24.5c-3.8-0.2-2.5,4.3-2.7,6.7c0,0.3-0.2,0.5-0.5,0.5
		c-2.3,0.2-6.4-0.8-6.6,1.8c-0.1,0.9,0.6,1.7,1.5,1.8c0,0,0.1,0,0.1,0h5c0.3,0,0.5,0.2,0.5,0.5c0.1,2.2-0.9,6.2,1.8,7"/>
	<path vector-effect="non-scaling-stroke" class="st2" d="M74.8,42.7c0.8,1.2,0.5,3-1,5.3c-0.1,0.1-0.5,0.5-1.2,1.2
		c-2.4,2.3,2.7,4.2,0.5,5.7"/>
	<path vector-effect="non-scaling-stroke" class="st0" d="M74.8,42.7c2.6-0.6,1.7-5.1,1.8-6.8c0-0.4,0.2-0.6,0.6-0.6
		c1.6-0.1,7.5,0.9,6.5-2.3c-0.2-0.7-0.9-1.2-1.6-1.2h-5c-0.4,0-0.6-0.2-0.5-0.6c0.3-2.6,0-4.9-0.8-6.7"/>
	<path vector-effect="non-scaling-stroke" class="st1" d="M58,62.9c-2.7-1.1-5.3-2.5-7.7-4.1c-8.6-5.8-8.3-13.3-8.3-22.5
		c0-0.7-0.1-0.7-0.4-0.1c-4.8,12.4-2.8,22.7,6,30.8c6.6,6,16.9,10,21.9,17.3c0.2,0.2,0.5,0.3,0.7,0.1c0.1-0.1,0.1-0.1,0.2-0.2
		c3.2-8.2,5-17.3-3.5-23c-4-2.7-8.1-5-10.6-9.2c-0.2-0.3-0.4-0.4-0.7-0.2c-4.2,2.7-0.1,8.3,2.6,10.8C58.8,63.1,58.7,63.2,58,62.9"/>
	<path vector-effect="non-scaling-stroke" class="st0" d="M91.3,62.5c2.7-2.5,6.6-7.8,2.6-10.7c-0.3-0.2-0.5-0.2-0.7,0.2
		c-3.3,6.1-10.7,7.5-14.4,12.9c-4,5.8-2.1,13.6,0.4,19.5c0.2,0.4,0.4,0.4,0.6,0.1c6.2-7.6,15.8-11.8,21-16.4
		c9.9-8.6,12.3-19.1,7.2-31.3c-0.3-0.7-0.5-0.7-0.5,0.1c0,4,0.3,8.4-0.8,11.9c-2.3,7.3-8.4,11.4-15.1,14.2
		C90.7,63.3,90.7,63.1,91.3,62.5"/>
</g>
<path class="st3" d="M79.5,13.7c-0.6,1.2-0.7,2.2-0.3,3c0.1,0.3,0.1,0.5,0,0.8l-0.7,1.1c-0.1,0.2-0.2,0.5-0.1,0.7
	c0.5,1.6-0.4,3.4-2.8,5.1c-3.8-0.2-2.5,4.3-2.7,6.7c0,0.3-0.2,0.5-0.5,0.5c-2.3,0.2-6.4-0.8-6.6,1.8c-0.1,0.9,0.6,1.7,1.5,1.8
	c0,0,0.1,0,0.1,0h5c0.3,0,0.5,0.2,0.5,0.5c0.1,2.2-0.9,6.2,1.8,7c0.8,1.2,0.5,3-1,5.3c-0.1,0.1-0.5,0.5-1.2,1.2
	c-2.4,2.3,2.7,4.2,0.5,5.7c-9.7-6.2-23.8-17.5-20.4-30.8C55.2,14,65,10.4,74.3,15.8c0.3,0.1,0.6,0.2,0.8,0L79.5,13.7z"/>
<path class="st4" d="M73,54.9c2.2-1.5-2.9-3.3-0.5-5.7c0.7-0.7,1.1-1.1,1.2-1.2c1.5-2.3,1.8-4.1,1-5.3c2.6-0.6,1.7-5.1,1.8-6.8
	c0-0.4,0.2-0.6,0.6-0.6c1.6-0.1,7.5,0.9,6.5-2.3c-0.2-0.7-0.9-1.2-1.6-1.2h-5c-0.4,0-0.6-0.2-0.5-0.6c0.3-2.6,0-4.9-0.8-6.7
	c2.4-1.8,3.3-3.5,2.8-5.1c-0.1-0.3-0.1-0.5,0.1-0.7l0.7-1.1c0.1-0.3,0.2-0.5,0-0.8c-0.4-0.8-0.3-1.9,0.3-3c6-1.2,10.7,0.2,14,4.1
	c7.7,9,2.4,21.3-5.2,28.1c-2.8,2.5-6.9,5.7-12.3,9.4C74.9,56.1,73.9,56,73,54.9z"/>
<path class="st5" d="M75.6,24.5c0.8,1.8,1.1,4,0.8,6.7c0,0.4,0.1,0.6,0.5,0.6h5c0.7,0,1.4,0.5,1.6,1.2c1,3.2-4.9,2.2-6.5,2.3
	c-0.4,0-0.6,0.2-0.6,0.6c0,1.7,0.9,6.1-1.8,6.8c-2.7-0.8-1.7-4.8-1.8-7c0-0.3-0.2-0.5-0.5-0.5h-5c-0.9,0-1.7-0.7-1.7-1.7
	c0,0,0-0.1,0-0.1c0.2-2.5,4.4-1.6,6.6-1.8c0.3,0,0.5-0.2,0.5-0.5C73.1,28.8,71.8,24.3,75.6,24.5z"/>
<path class="st3" d="M58.2,62.5c-2.7-2.5-6.8-8-2.6-10.8c0.3-0.2,0.5-0.1,0.7,0.2c2.5,4.3,6.6,6.5,10.6,9.2c8.5,5.8,6.8,14.9,3.5,23
	c-0.1,0.3-0.4,0.4-0.7,0.3c-0.1,0-0.2-0.1-0.2-0.2C64.5,77,54.1,73,47.6,67c-8.8-8.1-10.9-18.4-6-30.8c0.2-0.6,0.4-0.6,0.4,0.1
	c0,9.2-0.2,16.7,8.3,22.5c2.4,1.6,5,3,7.7,4.1C58.7,63.2,58.8,63.1,58.2,62.5z"/>
<path class="st4" d="M91.6,62.9c6.8-2.8,12.9-6.8,15.1-14.2c1.1-3.5,0.8-7.9,0.8-11.9c0-0.8,0.2-0.8,0.5-0.1
	c5.1,12.3,2.7,22.7-7.2,31.3c-5.2,4.5-14.8,8.8-21,16.4c-0.3,0.3-0.5,0.3-0.6-0.1c-2.4-5.9-4.4-13.8-0.4-19.5
	C82.6,59.5,89.9,58,93.2,52c0.2-0.3,0.4-0.4,0.7-0.2c4.1,2.9,0.1,8.3-2.6,10.7C90.7,63.1,90.7,63.3,91.6,62.9z"/>
</svg>
