<?xml version="1.0" encoding="utf-8"?>
<!-- Generator: Adobe Illustrator 27.6.1, SVG Export Plug-In . SVG Version: 6.00 Build 0)  -->
<svg version="1.1" id="Layer_1" xmlns="http://www.w3.org/2000/svg" xmlns:xlink="http://www.w3.org/1999/xlink" x="0px" y="0px"
	 viewBox="0 0 1043 782" style="enable-background:new 0 0 1043 782;" xml:space="preserve">
<style type="text/css">
	.st0{fill:none;stroke:#FFB3C2;stroke-width:2;}
	.st1{fill:none;stroke:#F9F9F9;stroke-width:2;}
	.st2{fill:none;stroke:#9797A0;stroke-width:2;}
	.st3{fill:none;stroke:#9F9EAB;stroke-width:2;}
	.st4{fill:none;stroke:#92B5FE;stroke-width:2;}
	.st5{fill:none;stroke:#8BAFF7;stroke-width:2;}
	.st6{fill:none;stroke:#DFDFDF;stroke-width:2;}
	.st7{fill:none;stroke:#F9ACBB;stroke-width:2;}
	.st8{fill:none;stroke:#E699A8;stroke-width:2;}
	.st9{fill:none;stroke:#E5C1C1;stroke-width:2;}
	.st10{fill:none;stroke:#7E7D87;stroke-width:2;}
	.st11{fill:none;stroke:#789CE4;stroke-width:2;}
	.st12{fill:none;stroke:#3254A9;stroke-width:2;}
	.st13{fill:none;stroke:#91909A;stroke-width:2;}
	.st14{fill:none;stroke:#F8D4D4;stroke-width:2;}
	.st15{fill:none;stroke:#9190D9;stroke-width:2;}
	.st16{fill:none;stroke:#97727C;stroke-width:2;}
	.st17{fill:none;stroke:#2A4D9F;stroke-width:2;}
	.st18{fill:none;stroke:#9998A4;stroke-width:2;}
	.st19{fill:none;stroke:#868591;stroke-width:2;}
	.st20{fill:#F2F2F2;}
	.st21{fill:#FF6684;}
	.st22{fill:#246BFC;}
	.st23{fill:#CCCCCC;}
	.st24{fill:#2F2E41;}
	.st25{fill:#FEB5B6;}
	.st26{fill:#FFFFFF;}
	.st27{fill:#3F3D56;}
</style>
<g>
	<path vector-effect="non-scaling-stroke" class="st0" d="M351.2,71.1c-21.4-19.2-53-19.1-73.3,1.9c-13.1,13.6-17.3,30.4-12.5,50.6"
		/>
	<path vector-effect="non-scaling-stroke" class="st1" d="M265.4,123.5c-3.8,2.5-7.2,6.6-9.8,9c-8.2,7.4-15.8,15.3-23,23.6
		c-0.2,0.3-0.5,0.4-0.8,0.5c-0.8,0.2-1.7,0.4-2.5,0.4c-14.3,0-26.8,2.1-31.8,17.2c-0.4,1.1,0.1,2.4,1.1,3c3.7,2.4,8.9,2.9,13.1,3.6
		c0.7,0.1,0.8,0.5,0.4,1C102.6,339.2,141.2,549.8,299.4,657c65,44.1,143.9,62,222.3,54.5c3.5-0.3,6.9-1.2,10.3-2.1"/>
	<path vector-effect="non-scaling-stroke" class="st2" d="M532,709.5l9.1,27.1c0.2,0.5,0.7,0.7,1.1,0.6c0,0,0.1,0,0.1,0l6.9-3.2
		c0.3-0.1,0.4-0.3,0.3-0.6l-1.4-7.1c0-0.2,0.1-0.4,0.3-0.5c0.1,0,0.3,0,0.4,0.1l5.8,5.5c0.2,0.2,0.5,0.3,0.8,0.2
		c7.5-3,14.8-6.2,22.1-9.6c3.7-1.7,4.6-6.5,1.5-9c-0.9-0.7-2.4-1.2-4.6-1.7c-5.6-1.1-11.2-2.3-16.9-3.4"/>
	<path vector-effect="non-scaling-stroke" class="st1" d="M557.5,707.8c-0.4-0.8-0.4-1.5,0-2.2c0.2-0.3,0.4-0.5,0.8-0.5
		c5.2-1,9.6-1.9,13.1-2.9c47.9-12.8,90.9-35,129.3-66.6"/>
	<path vector-effect="non-scaling-stroke" class="st3" d="M700.6,635.7c1.4-1.3,2.9-2.6,4.6-4c38.7-33.6,68.4-73.8,89-120.8
		c1.3-2.9,0.6-5-0.3-7.8"/>
	<path vector-effect="non-scaling-stroke" class="st1" d="M793.9,503c1-0.7,1.7-0.8,1.9-0.4c0.3,0.5,1,0.4,1.5-0.1
		c0.2-0.2,0.3-0.4,0.4-0.7c7-16.6,11.2-33.1,16-50.1"/>
	<path vector-effect="non-scaling-stroke" class="st4" d="M813.8,451.7c36.2,5.7,69.3-1.3,99.5-21.1c82.2-53.8,81.9-174.5,0.3-228.6
		c-0.3-0.2-0.5-0.1-0.7,0.1c-4.6,5.9-8.3,12.3-10.9,19.3c0,0.1-0.1,0.2-0.2,0.1c-0.1,0-0.1-0.1-0.1-0.2c0.5-8.1,2-15.9,4.6-23.6
		c0.1-0.2,0-0.4-0.2-0.5c-9.4-5.4-19.3-9.7-29.6-12.7c-19.2-5.6-33-15.3-42.5-33.3c-27-51.7-90.3-68.2-139.6-36.9"/>
	<path vector-effect="non-scaling-stroke" class="st1" d="M694.3,114.4c-2.8-2.4-5.7-5.1-8.6-7.2c-51.1-37.3-108.3-58.9-171.6-64.8
		c-4.4-0.4-9.6-0.3-14.4-0.6c-4.9-0.3-8.5-0.5-10.8-0.5c-44.2,0.1-85.8,7.1-127.6,23.9c-4.2,1.7-7.1,2-10,5.9"/>
	<path vector-effect="non-scaling-stroke" class="st5" d="M694.3,114.4c-1.6,0.8-2.9,1.8-3.9,2.9c-0.2,0.3-0.3,0.6-0.2,0.9
		c2,10.7,5.3,21,10.2,30.8c0,0.1,0,0.2-0.1,0.2c-0.1,0-0.1,0-0.2,0c-3.8-3.2-6.9-6.4-9.3-9.5c-3.5-4.5-6.8-9.1-10-13.7
		c-0.2-0.3-0.7-0.4-1-0.2c0,0-0.1,0.1-0.1,0.1c-11.3,11.3-19.5,24.5-24.5,39.8c-5.7,17.5-11.4,31.9-24.6,45.8"/>
	<path vector-effect="non-scaling-stroke" class="st6" d="M630.7,211.5c-0.8-24.3-0.9-48.2-0.5-71.9c0.3-14.8-2.8-23.2-19.3-23.2
		c-52.1,0-104.2,0-156.3,0c-5.5,0-15.6,0.4-24.1,0.3c-6.2-0.1-19.3,0.2-39.3,1c-8.1,0.3-16.4-0.2-24.6-0.4"/>
	<path vector-effect="non-scaling-stroke" class="st7" d="M366.5,117.4c-18.8-1.6-37.6-3.8-56.1-7.6c-2.5-0.5-6.1-3.5-4.6-6.7
		c4.4-9.5,12-14.4,22.2-14.9c8.8-0.5,23-1.7,30.4-6.7c0.7-0.5,0.7-1,0.2-1.6l-7.5-8.9"/>
	<path vector-effect="non-scaling-stroke" class="st8" d="M366.5,117.4c-2.9,15.5-11.1,27.6-24.6,36.4"/>
	<path vector-effect="non-scaling-stroke" class="st7" d="M342,153.9c-20.1-14.7-43.9-21.9-68-14.6c-0.4,0.1-0.9,0-1.2-0.4
		c-3.2-4.7-5.6-9.9-7.4-15.3"/>
	<path vector-effect="non-scaling-stroke" class="st6" d="M573.6,260.4l4.8-58.3c0-0.4-0.2-0.6-0.6-0.7c-12.7-0.9-25.4-0.9-38.1,0.1
		c-0.4,0-0.8,0.4-0.8,0.9c0.1,10.2-0.6,20.1,0,30.4c0.4,7.7,0.5,15.5,0.3,23.2c-0.3,8.8,0.2,18-0.2,27c0,0.4,0.2,0.5,0.5,0.5
		l22.6,0.2"/>
	<path vector-effect="non-scaling-stroke" class="st6" d="M560.9,288.7l-20.1,0.2c-1,0-1.5,0.5-1.5,1.5l0,50.6"/>
	<path vector-effect="non-scaling-stroke" class="st9" d="M539.3,341c-1.7,0.3-3.4,1.4-5.1,3.4"/>
	<path vector-effect="non-scaling-stroke" class="st6" d="M534.2,344.4l0-55.1c0-0.3-0.2-0.5-0.5-0.5c-8.8-0.3-18.1,0.2-26.8-1.1
		c-3.1-0.5-5.9-0.7-8.2-0.7c-15.2-0.1-30.3,0-45.5,0.2c-5.8,0.1-13.1,1.1-19.6,0.9c-0.6,0-1.2,0.5-1.2,1.1c0,0,0,0.1,0,0.1
		c0.3,6.9,0.5,13.5,0.7,20c0.2,9.6-0.3,22.3-0.1,33.5c0.1,2.3,0.5,3.4,3,3.3c10-0.4,22.1-0.3,36.5,0c0.4,0,0.7-0.1,0.9-0.4
		c2-2.4,3.7-4.9,7.3-5c3.1,0,10.9-0.6,12.5,2c0.6,1,1.3,1.8,2.1,2.6c0.3,0.2,0.6,0.3,0.9,0.4c11.1,0.4,22.2,0.5,33.3,0.1
		c1.2,0,2.5-0.6,3.9-0.6"/>
	<path vector-effect="non-scaling-stroke" class="st9" d="M533.4,345.2c-6.1,6.2-12.5,12.2-19.1,17.9"/>
	<path vector-effect="non-scaling-stroke" class="st6" d="M514.3,363.1l-80.5,0.1"/>
	<path vector-effect="non-scaling-stroke" class="st10" d="M433.8,363.2c-0.2-5.7-2-11.3-5.4-16.9c-1.4-2.3-3.1-2.2-1.5-5.5
		c1-2.1,1.2-4.3,0.5-6.5"/>
	<path vector-effect="non-scaling-stroke" class="st6" d="M427.4,334.3c0.6-1.3,0.8-2.6,0.6-4.2c-1.1-13.3-0.3-27.8,0.1-41.2
		c0-0.2-0.1-0.4-0.4-0.4l-30.3,0.2c-0.2,0-0.4,0.2-0.4,0.4c0,0,0,0,0,0l3,34.4"/>
	<path vector-effect="non-scaling-stroke" class="st10" d="M400,323.6c-4-0.2-8.6-0.2-13.9,0c-3.9,0.2-7.4,1.2-10.6,3.2
		c-0.3,0.2-0.5,0.2-0.8,0c-8.6-5.3-17.9,4.4-14.6,13.3c0.1,0.3,0,0.6-0.2,0.8c-6.1,6.8-9.3,14.7-9.9,23.9c0,0.4-0.1,0.7-0.4,0.9
		c-8,9.8-3.2,24.8,0.4,35.1c0.1,0.3,0.4,0.5,0.7,0.4c18.8-4.5,36.4-7.4,55.5-6.6"/>
	<path vector-effect="non-scaling-stroke" class="st6" d="M406.5,394.6c-0.5,1.5-0.6,3.5-0.2,6.2"/>
	<path vector-effect="non-scaling-stroke" class="st11" d="M406.3,400.8l-24.1-2.3c-0.8-0.1-1.3,0.2-1.5,1l-2.8,7.3
		c-0.1,0.3-0.3,0.5-0.6,0.6c-2.3,0.7-4.3,1.8-6.2,3.3c-1.1,0.9-2.3,1.5-3.6,1.9c-20.4,6.6-13.2,30.6-7.1,44.6
		c3,6.7,4.9,11.9,5.5,19.5c1.6,19.5,3.6,39.4,6,59.5"/>
	<path vector-effect="non-scaling-stroke" class="st10" d="M371.9,536c-4,6.1-8.7,12.6-14.2,19.4c-9.4,11.5-15.7,27.2-3.6,39.7
		c7.7,8,20.2,8.2,30,9.5c32.8,4.5,66.7,1.4,99.1-4.5c0.3-0.1,0.6,0.1,0.7,0.4l19.2,39.4"/>
	<path vector-effect="non-scaling-stroke" class="st6" d="M503,639.9c-1.9,0.7-3.5,1.1-4.8,1.1c-59.6,0-119.2,0-178.8,0
		c-5.3,0-9.1-0.4-11.6-1.2c-21.2-7-21.1-37.9,0.6-44.7c7.7-2.4,19.6-0.9,28.1-1.3c0.3,0,0.5-0.2,0.5-0.6c0-65.6,0-131.2,0-196.8
		c0-3.4-0.6-7.8-0.3-11.8c0.3-5.3,0.5-8.2,0.4-8.8c-0.1-64-0.2-128-0.1-192c0-0.3,0.2-0.6,0.5-0.6c9.7-1.2,19.2-3.1,28.6-5.5
		c1.4-0.4,1.6-1.1,0.6-2.1c-8-8-16.3-15.3-24.8-21.8"/>
	<path vector-effect="non-scaling-stroke" class="st5" d="M813.8,451.7c-9.5-1.8-19.1-4.5-28.7-8.2"/>
	<path vector-effect="non-scaling-stroke" class="st12" d="M785.1,443.5c-0.2-0.1-0.6-0.2-1.2-0.5c-27.2-12.9-54-22.1-84.9-27.2
		c-0.5-0.1-1.2,0-2.1,0.3"/>
	<path vector-effect="non-scaling-stroke" class="st5" d="M696.9,416c-0.5-0.4-1-0.6-1.6-0.7c-12.2-2-25-2.6-36.6-3.4
		c-10-0.7-18.2-0.1-29.2-3"/>
	<path vector-effect="non-scaling-stroke" class="st11" d="M629.5,408.9l-5.9-1.8c-0.5-0.1-0.7-0.6-0.6-1.1c0.1-0.2,0.2-0.3,0.3-0.4
		c4.1-3.3,8.4-6.2,13.1-8.7c0.1,0,0.2-0.2,0.2-0.3c0-0.1-0.2-0.2-0.3-0.2l0,0c-7.6,1.5-14.9,3.7-22,6.6c-0.3,0.1-0.7,0.1-1,0
		c-23.8-10.2-42.4-32.8-50.8-56.7"/>
	<path vector-effect="non-scaling-stroke" class="st5" d="M562.4,346.4c-6.4-19.1-6.9-38.4-1.5-57.7"/>
	<path vector-effect="non-scaling-stroke" class="st11" d="M560.9,288.7l1.4-4.9"/>
	<path vector-effect="non-scaling-stroke" class="st5" d="M562.2,283.7c3.4-8.5,7.2-16.3,11.3-23.3"/>
	<path vector-effect="non-scaling-stroke" class="st11" d="M573.6,260.4c6.6-8.9,13.8-16.4,21.6-22.5c5.9-4.6,13.9-9.1,21-13.5
		c4.6-2.9,9.4-7.2,14.5-12.9"/>
	<path vector-effect="non-scaling-stroke" class="st13" d="M503,639.9c10,19.8,17.8,35.8,23.5,47.8c0.7,1.5,2.4,1.9,5,1.3"/>
	<path vector-effect="non-scaling-stroke" class="st14" d="M531.5,689l3.6,17.3"/>
	<path vector-effect="non-scaling-stroke" class="st13" d="M535.1,706.3l-3,1.5c-0.3,0.1-0.4,0.4-0.4,0.7c0,0.3,0.1,0.6,0.3,0.9"/>
	<path vector-effect="non-scaling-stroke" class="st9" d="M552.3,346.2c2.3,6.8,2.5,12.2-3.7,17"/>
	<path vector-effect="non-scaling-stroke" class="st14" d="M548.6,363.2l-4,2.4c-0.3,0.2-0.6,0.2-0.9,0c-1.1-0.7-2.2-0.6-3.4,0.1
		c-0.3,0.2-0.7,0.1-0.9-0.2c0,0,0-0.1,0-0.1c-0.3-0.7-0.9-1.1-1.6-1.1c-0.4,0-0.7,0.1-0.9,0.4l-23.7,24.1c-0.2,0.2-0.5,0.3-0.8,0.3
		l-0.3,0"/>
	<path vector-effect="non-scaling-stroke" class="st15" d="M512.1,389c-1.7-6.8-3-13.6-3.9-20.3"/>
	<path vector-effect="non-scaling-stroke" class="st14" d="M508.2,368.7c2.6-1.4,4.6-3.3,6.1-5.6"/>
	<path vector-effect="non-scaling-stroke" class="st13" d="M427.4,334.3c-2.4-5.6-7.8-11.1-13.7-6c-0.3,0.2-0.5,0.2-0.8,0
		c-3.4-2.7-7.7-4.3-12.8-4.7"/>
	<path vector-effect="non-scaling-stroke" class="st6" d="M562.4,346.4c-3.4-0.5-6.8-0.6-10.1-0.2"/>
	<path vector-effect="non-scaling-stroke" class="st14" d="M552.3,346.2c-3.6-3.8-7.9-5.6-13-5.2"/>
	<path vector-effect="non-scaling-stroke" class="st16" d="M560.5,633.5l-12.3,6.9"/>
	<path vector-effect="non-scaling-stroke" class="st13" d="M548.2,640.3l-3.7,2c-0.8,0.4-1.8,0.2-2.2-0.6l-9.2-15.3
		c-0.1-0.1-0.2-0.1-0.3-0.1c-0.1,0-0.1,0.1-0.1,0.2l18.4,59.6c0.1,0.4-0.1,0.8-0.5,0.9c0,0-0.1,0-0.1,0l-4,0.5"/>
	<path vector-effect="non-scaling-stroke" class="st16" d="M546.5,687.7l-15,1.3"/>
	<path vector-effect="non-scaling-stroke" class="st16" d="M376.7,535.5l56.4,1.1"/>
	<path vector-effect="non-scaling-stroke" class="st13" d="M433.1,536.6c0.6-0.1,1.3-0.1,2,0.2c0.4,0.2,0.5,0.4,0.5,0.8l-0.2,2.1
		c0,0.4,0.1,0.6,0.5,0.3l13.9-8.6"/>
	<path vector-effect="non-scaling-stroke" class="st16" d="M449.7,531.4c0.9,0.1,1.5,0,2.3,0.4c6.8,3.6,13.6,7.2,20.4,10.8
		c0.3,0.2,0.5,0.4,0.5,0.7c0.3,1.4,0.6,2.8,0.9,4.2c1.9,6.9,9,10.1,15.4,7.9c9.7-3.4,11.3-17.7,1.4-22.2
		c-7.9-3.6-15.5-7.9-22.6-12.9"/>
	<path vector-effect="non-scaling-stroke" class="st5" d="M508.2,368.7c0.1-1,0.2-1.5,0.2-1.6c-0.5-1-1.2-1.1-2-0.4
		c-13.4,11.5-26.5,23-39.4,34.3c-1.4,1.3-3.4,2.5-5.6,3c-16.3,3.7-32.6,7.6-48.9,11.5c-0.3,0.1-0.5,0-0.6-0.4
		c-1-4.6-1.1-11.9-5.6-14.4"/>
	<path vector-effect="non-scaling-stroke" class="st13" d="M433.8,363.2c0.4,2,1.4,3.7,2.7,5.1c9.1,9.6,3.8,22.8-2.1,32.2
		c-0.3,0.4-0.8,0.6-1.3,0.4c-8.3-3.7-17.2-5.8-26.7-6.4"/>
	<path vector-effect="non-scaling-stroke" class="st15" d="M460.6,516l-18.4,9.6"/>
	<path vector-effect="non-scaling-stroke" class="st5" d="M442.3,525.6c-2-0.1-4.4-0.8-7.1-2"/>
	<path vector-effect="non-scaling-stroke" class="st15" d="M435.1,523.7L424,520c-0.3-0.1-0.6-0.1-0.9,0
		c-15.3,5.6-30.7,10.8-46.4,15.5"/>
	<path vector-effect="non-scaling-stroke" class="st17" d="M376.7,535.5c-1.1-0.3-2.7-0.1-4.8,0.6"/>
	<path vector-effect="non-scaling-stroke" class="st14" d="M534.2,344.4c-0.3,0-0.6,0.3-0.8,0.8"/>
	<path vector-effect="non-scaling-stroke" class="st18" d="M696.9,416l-7.3,19.2"/>
	<path vector-effect="non-scaling-stroke" class="st5" d="M689.6,435.2c-9.5-16.2-27.2-25.9-46-22.3c-4.1,0.8-2.4,3.9-1.5,6.3
		c0.2,0.5,0.1,0.6-0.3,0.2c-1.5-1.2-2.5-2.7-3.1-4.4c-0.1-0.3-0.5-0.5-0.8-0.4c0,0,0,0-0.1,0l-7.5,3.5"/>
	<path vector-effect="non-scaling-stroke" class="st6" d="M629.5,408.9c0.9,3.1,1.1,6.2,0.8,9.3"/>
	<path vector-effect="non-scaling-stroke" class="st11" d="M630.3,418.3c-4.3,3-10.1,5.6-15.4,4.3c-19.2-4.7-36.4,5-39.9,25
		c-0.1,0.8,0.3,1.6,1,1.9l6.3,2.7c0.2,0.1,0.3,0.3,0.2,0.6c-0.1,0.2-0.2,0.3-0.4,0.3l-6.3-0.3c-0.5,0-0.9,0.4-1,0.9c0,0,0,0.1,0,0.1
		c1.5,12.7,11.1,19.5,9.9,33.1c-0.4,4.3-1.3,9.2-1,13.1c1.4,20.6,21.2,31.7,40.5,25.9c3.1-0.9,1.9-3.2,3.5-5.1
		c0.3-0.3,0.4-0.3,0.5,0.2c0.1,1.8,0.6,2.6,1.5,2.6"/>
	<path vector-effect="non-scaling-stroke" class="st6" d="M629.7,523.6c0.5,23.4,0.6,46.6,0.5,69.6c0,0.4,0.2,0.6,0.5,0.6
		c8.4,0,16.8,0.1,25.1,0.2c5.9,0.1,10.3,0.6,13,1.6c20.5,7.6,19.6,37.2-0.7,44.1c-2.7,0.9-6.5,1.4-11.6,1.4c-31.4,0-62.7,0-94.1,0"
		/>
	<path vector-effect="non-scaling-stroke" class="st9" d="M562.5,641c-0.3-1.9-1-3.6-2-5.3c-0.2-0.3-0.2-0.6,0-0.9
		c0.3-0.5,0.3-0.9,0-1.3"/>
	<path vector-effect="non-scaling-stroke" class="st10" d="M560.5,633.5l3.3-1.9c0.4-0.2,0.5-0.7,0.3-1.1L544.5,591"/>
	<path vector-effect="non-scaling-stroke" class="st6" d="M544.5,591l0.5-0.5c0.2-0.2,0.3-0.5,0.3-0.7
		c6.5-74.9,12.9-149.9,19.1-224.8c0.1-1.5-0.6-2.1-2-2c-3.7,0.3-8.3,0.4-13.6,0.2"/>
	<path vector-effect="non-scaling-stroke" class="st18" d="M785.1,443.5c0.8,20.4,3.7,40.3,8.8,59.5"/>
	<path vector-effect="non-scaling-stroke" class="st18" d="M700.6,635.7c-5.6-8.7-9-14.3-10.3-16.7c-10.6-20.4-16.9-42.1-18.9-65.1
		c0-0.3-0.2-0.6-0.4-0.9l-32.2-38.1"/>
	<path vector-effect="non-scaling-stroke" class="st18" d="M667.1,495l5.4,6.8c0.2,0.2,0.5,0.3,0.7,0.1c0.1-0.1,0.2-0.2,0.2-0.3
		l1.4-10"/>
	<path vector-effect="non-scaling-stroke" class="st16" d="M549.7,699.2l-14.6,7.2"/>
	<path vector-effect="non-scaling-stroke" class="st13" d="M544.5,591c-10.4-21.2-20.9-42.4-31.4-63.5c-2.5-5-4.8-8.5-6.9-10.6
		c-7.9-7.8-19.2-8.5-28.7-2.6c-3.2,2-6.3,3.9-9.4,5.9"/>
	<path vector-effect="non-scaling-stroke" class="st14" d="M468,520.3c-2.7-0.9-5.2-2.3-7.4-4.3"/>
	<path vector-effect="non-scaling-stroke" class="st5" d="M460.6,516l1.7-0.7c0.3-0.1,0.5-0.5,0.4-0.8c0-0.1-0.1-0.2-0.3-0.3
		l-22.6-14.7c-0.3-0.2-0.4-0.5-0.4-0.8c3.6-17,6.3-36.8-4.7-51.9c-0.1-0.1-0.1-0.2,0-0.3c0,0,0.1,0,0.1,0
		c11.8-1.6,23.3-3.7,34.3-6.1c3-0.6,4.8-1.8,6.8-3.8c13.6-13.9,24.8-30.4,35.7-46.4c0.1-0.2,0.2-0.4,0.3-0.7c0-0.2,0.1-0.3,0.1-0.5"
		/>
	<path vector-effect="non-scaling-stroke" class="st16" d="M564.4,645.7l-11.6,6.1"/>
	<path vector-effect="non-scaling-stroke" class="st14" d="M435.1,523.7c-1.2,4.2-1.9,8.5-2.1,12.9"/>
	<path vector-effect="non-scaling-stroke" class="st13" d="M557.5,707.8l-3.8-0.9c-0.3-0.1-0.6-0.3-0.7-0.6l-3.3-7.2"/>
	<path vector-effect="non-scaling-stroke" class="st14" d="M549.7,699.2c-1.2-1.9-1.9-3.2-2-5.7c0-1.8-0.4-3.7-1.2-5.7"/>
	<path vector-effect="non-scaling-stroke" class="st14" d="M548.2,640.3c0.3,4.2,1.8,8,4.5,11.5"/>
	<path vector-effect="non-scaling-stroke" class="st13" d="M552.7,651.8l-2.7,1.7c-0.3,0.2-0.4,0.5-0.3,0.8l9.8,27.8
		c0.1,0.4,0.4,0.5,0.8,0.3l7.2-2.9c0.5-0.2,0.7-0.6,0.6-1.1l-1.8-7.2c-0.1-0.2,0.1-0.5,0.3-0.5c0.1,0,0.3,0,0.4,0.1l5.8,5.6
		c0.2,0.2,0.4,0.2,0.7,0.1c7.3-3,14.5-6.3,21.5-9.7c2.4-1.2,3.8-2.5,3.8-5.2c0-4.8-2.6-4.7-6.2-5.5c-6.8-1.4-13.7-2.7-20.5-3.8
		c-0.3,0-0.5-0.2-0.7-0.5L568,645c-0.2-0.4-0.6-0.6-0.9-0.5c-1,0.2-1.9,0.6-2.7,1.2"/>
	<path vector-effect="non-scaling-stroke" class="st14" d="M564.4,645.7c-1.4-1.4-2-2.9-1.8-4.6"/>
	<path vector-effect="non-scaling-stroke" class="st14" d="M449.7,531.4c0-0.1,0.1-0.2,0.1-0.3c0-0.2-0.1-0.4-0.3-0.5
		c-2.6-1.3-5-3-7.2-5"/>
	<path vector-effect="non-scaling-stroke" class="st12" d="M689.6,435.2c0.9,2.3,4.4,11,3.9,13.2c-0.1,0.3-0.1,0.7,0,1
		c1.9,12.3-0.9,23.1-8.4,32.4c-2.8,3.4-6.8,6.7-10.3,9.9"/>
	<path vector-effect="non-scaling-stroke" class="st5" d="M674.8,491.7l-7.7,3.4"/>
	<path vector-effect="non-scaling-stroke" class="st12" d="M667.1,495c-10.7,4.8-20.1,11.4-28.2,19.8"/>
	<path vector-effect="non-scaling-stroke" class="st5" d="M638.9,514.8c-2.7,3.5-5.8,6.4-9.1,8.8"/>
	<path vector-effect="non-scaling-stroke" class="st6" d="M428.9,186.9c0.4-8.5,0.3-17-0.3-25.5c-0.9-12.8-1.2-25.4-0.6-38.7
		c0-0.7-0.3-1.1-1-1.1l-43.6,0c-0.2,0-0.4,0.1-0.4,0.3c-0.1,1.4-0.1,2.9,0,4.4c1.9,21.3,3.7,42.7,5.5,64c0.2,2.1,0.4,3.8,0.6,5.2
		c0.1,0.4,0.3,0.6,0.7,0.6c8.7,0.2,17.3,0.3,26,0.2c4,0,8.3,0.7,12.5,0.9c0.5,0,0.9-0.3,0.9-0.8c0,0,0-0.1,0-0.1
		C429,193.3,428.8,190.2,428.9,186.9"/>
	<path vector-effect="non-scaling-stroke" class="st6" d="M449,197.1c4-0.1,8.6,0.3,12.9,0.3c4.7-0.1,7.9-0.1,9.7,0
		c21.2,0.7,42.6-1.3,61.9-0.9c0.3,0,0.5-0.1,0.5-0.5c0.4-7.4,0.6-14.9,0.5-22.3c-0.3-19.1-0.2-34.2-0.3-51.4c0-0.4-0.3-0.6-0.7-0.7
		l-100.3,0c-0.4,0-0.6,0.2-0.6,0.6c0.4,10.3,0.4,22.3,0,35.9c0,1-0.2,1.7-0.6,2.3c-0.2,0.3-0.3,0.6-0.3,0.9l0.1,34.8
		c0,0.8,0.6,1.4,1.4,1.4c0,0,0,0,0,0C438.4,197.4,443.7,197.3,449,197.1"/>
	<path vector-effect="non-scaling-stroke" class="st6" d="M538.9,164.5c-0.4,10.4-0.3,20.9,0.3,31.4c0,0.4,0.3,0.7,0.7,0.7l38.1-0.3
		c0.6,0,0.9-0.3,0.9-0.8l6.2-72.1c0.1-0.8-0.5-1.5-1.3-1.6c0,0-0.1,0-0.1,0h-44c-0.4,0-0.6,0.2-0.6,0.6
		C539.2,136.4,539.5,149.4,538.9,164.5"/>
	<path vector-effect="non-scaling-stroke" class="st6" d="M479.3,200.6c-15.8,0.2-31.6,0.2-47.4,0.1c-0.1,0-0.3,0.1-0.3,0.3l1,82.6
		c0,0.3,0.1,0.4,0.4,0.4c3.8,0,9.9,0.2,18.5,0.7c8.1,0.5,21.6,0.6,40.8,0.4c11.6-0.2,27.3-1.7,41.1-1.2c0.4,0,0.6-0.2,0.6-0.5
		c0.3-27.1,1-54.5,0-81.6c0-0.4-0.2-0.5-0.5-0.5C515.3,201.5,497.2,200.4,479.3,200.6"/>
	<path vector-effect="non-scaling-stroke" class="st6" d="M428.6,215.3c-0.1-4.1,0.4-9.4,0-14.2c0-0.3-0.3-0.6-0.6-0.6
		c-4.1,0-8.2,1.6-12.2,0.6c-1.6-0.4-3.2-0.5-4.8-0.5c-6.4,0-12.8-0.2-19.4,0c-1.1,0-2,1-2,2.1c0,0,0,0.1,0,0.1l6.8,80.3
		c0,0.3,0.3,0.6,0.7,0.6l30.3,0c0.4,0,0.6-0.3,0.6-0.6c0,0,0,0,0,0c-0.1-5.2-0.1-10.4,0.1-15.8c0.1-2,0.6-5.2,0.4-7.9
		c-0.2-3-0.3-5-0.3-5.8C428.8,240.8,428.9,228.1,428.6,215.3"/>
	<path vector-effect="non-scaling-stroke" class="st1" d="M247.5,406.9c0.3-0.4,0.9-0.5,1.3-0.2c9.5,6.3,26.2,15,37.9,13
		c0.7-0.1,20.6-5.2,21.1-7.3c0.1-0.4-0.1-0.6-0.5-0.4l-12.6,4c-0.4,0.1-0.9-0.1-1-0.5c0,0,0-0.1,0-0.1c-2-10.9-7.2-20-15.6-27.1
		c-0.2-0.2-0.5-0.2-0.7,0.1c-0.2,0.2-0.2,0.4,0,0.6c2.8,3.6,6.4,7.2,8.6,10.6c3.1,5,5.3,10.4,6.6,16.2c0.1,0.3,0,0.5-0.3,0.7
		c-11.4,5.2-27.3-2.4-37.8-8.5c-15.4-9-28.5-20.7-39.4-35.1c-7-9.3-13.3-19.1-18.8-29.3c-0.2-0.4-0.5-0.5-0.8-0.2
		c-0.4,0.3-0.5,0.9-0.2,1.3c0,0,0.1,0.1,0.1,0.1c1.5,1.5,1.9,3.9,2.7,5.4c11.6,22.3,27.7,40.6,48.5,54.8c0.3,0.2,0.3,0.4,0.1,0.7
		c-3.9,4.6-8.8,7-14.7,7.2c-3.2,0.1-6.6-1.4-9.9-2c-0.3-0.1-0.7,0.2-0.7,0.5c-0.1,0.3,0.1,0.6,0.4,0.7c5,2.3,9.8,2.9,14.5,1.7
		C240.6,412.7,244.8,410.7,247.5,406.9"/>
	<path vector-effect="non-scaling-stroke" class="st16" d="M420.1,354.1l-46.4,0.4c-1.5,0-2.7,1.2-2.7,2.7c0,0,0,0,0,0l0.1,5.7
		c0.1,14.4,11.8,26,26,25.8h0.2c14.2-0.1,25.6-11.9,25.5-26.3c0,0,0,0,0,0l0-5.7C422.7,355.3,421.5,354.1,420.1,354.1"/>
	<path vector-effect="non-scaling-stroke" class="st19" d="M570.6,576.7c-8.8,2.8-4.9,13.3,3.4,11.6c0.3-0.1,0.7,0.2,0.7,0.5
		c0,0,0,0,0,0c0.7,3.3,1.6,8.8,4.8,8.8c2.7,0.1,15.4,1.3,19.9-0.7c0.3-0.1,0.5-0.4,0.7-0.7c2-5.3,3.7-10.8,5.1-16.3
		c1.4-5.5-5-5.2-8.4-5c-6.7,0.3-13.3,0.2-20,0.2C574.6,575.2,572.7,576,570.6,576.7"/>
	<path vector-effect="non-scaling-stroke" class="st19" d="M573.5,586.2l-2.1-7.8c-0.1-0.2-0.3-0.4-0.6-0.3l-0.2,0
		c-2.4,0.6-3.9,3.1-3.2,5.5c0,0,0,0,0,0l0,0.1c0.6,2.4,3.1,3.8,5.5,3.1l0.2,0C573.4,586.8,573.6,586.5,573.5,586.2
		C573.5,586.2,573.5,586.2,573.5,586.2"/>
</g>
<path class="st20" d="M694.3,114.4c-1.6,0.8-2.9,1.8-3.9,2.9c-0.2,0.3-0.3,0.6-0.2,0.9c2,10.7,5.3,21,10.2,30.8c0,0.1,0,0.2-0.1,0.2
	c-0.1,0-0.1,0-0.2,0c-3.8-3.2-6.9-6.4-9.3-9.5c-3.5-4.5-6.8-9.1-10-13.7c-0.2-0.3-0.7-0.4-1-0.2c0,0-0.1,0.1-0.1,0.1
	c-11.3,11.3-19.5,24.5-24.5,39.8c-5.7,17.5-11.4,31.9-24.6,45.8c-0.8-24.3-0.9-48.2-0.5-71.9c0.3-14.8-2.8-23.2-19.3-23.2
	c-52.1,0-104.2,0-156.3,0c-5.5,0-15.6,0.4-24.1,0.3c-6.2-0.1-19.3,0.2-39.3,1c-8.1,0.3-16.4-0.2-24.6-0.4
	c-18.8-1.6-37.6-3.8-56.1-7.6c-2.5-0.5-6.1-3.5-4.6-6.7c4.4-9.5,12-14.4,22.2-14.9c8.8-0.5,23-1.7,30.4-6.7c0.7-0.5,0.7-1,0.2-1.6
	l-7.5-8.9c2.9-3.8,5.9-4.2,10-5.9c41.7-16.8,83.3-23.8,127.6-23.9c2.3,0,5.9,0.2,10.8,0.5c4.8,0.3,10,0.2,14.4,0.6
	c63.3,5.9,120.5,27.5,171.6,64.8C688.6,109.3,691.5,111.9,694.3,114.4z"/>
<path class="st21" d="M351.2,71.1l7.5,8.9c0.5,0.6,0.4,1.1-0.2,1.6c-7.4,5-21.7,6.2-30.4,6.7c-10.3,0.6-17.8,5.4-22.2,14.9
	c-1.5,3.2,2.1,6.1,4.6,6.7c18.5,3.9,37.2,6,56.1,7.6c-2.9,15.5-11.1,27.6-24.6,36.4c-20.1-14.7-43.9-21.9-68-14.6
	c-0.4,0.1-0.9,0-1.2-0.4c-3.2-4.7-5.6-9.9-7.4-15.3c-4.8-20.1-0.6-37,12.5-50.6C298.2,52,329.8,51.9,351.2,71.1z"/>
<path class="st22" d="M813.8,451.7c-9.5-1.8-19.1-4.5-28.7-8.2c-0.2-0.1-0.6-0.2-1.2-0.5c-27.2-12.9-54-22.1-84.9-27.2
	c-0.5-0.1-1.2,0-2.1,0.3c-0.5-0.4-1-0.6-1.6-0.7c-12.2-2-25-2.6-36.6-3.4c-10-0.7-18.2-0.1-29.2-3l-5.9-1.8
	c-0.5-0.1-0.7-0.6-0.6-1.1c0.1-0.2,0.2-0.3,0.3-0.4c4.1-3.3,8.4-6.2,13.1-8.7c0.1,0,0.2-0.2,0.2-0.3c0-0.1-0.2-0.2-0.3-0.2l0,0
	c-7.6,1.5-14.9,3.7-22,6.6c-0.3,0.1-0.7,0.1-1,0c-23.8-10.2-42.4-32.8-50.8-56.7c-6.4-19.1-6.9-38.4-1.5-57.7l1.4-4.9
	c3.4-8.5,7.2-16.3,11.3-23.3c6.6-8.9,13.8-16.4,21.6-22.5c5.9-4.6,13.9-9.1,21-13.5c4.6-2.9,9.4-7.2,14.5-12.9
	c13.1-13.9,18.8-28.3,24.6-45.8c5-15.3,13.2-28.6,24.5-39.8c0.3-0.3,0.7-0.3,1,0c0,0,0.1,0.1,0.1,0.1c3.2,4.6,6.5,9.1,10,13.7
	c2.4,3.1,5.5,6.3,9.3,9.5c0.1,0.1,0.2,0.1,0.2,0c0-0.1,0.1-0.1,0-0.2c-4.8-9.8-8.2-20-10.2-30.8c-0.1-0.3,0-0.7,0.2-0.9
	c0.9-1.2,2.2-2.2,3.9-2.9c49.2-31.2,112.6-14.8,139.6,36.9c9.4,18,23.2,27.7,42.5,33.3c10.3,3,20.2,7.2,29.6,12.7
	c0.2,0.1,0.3,0.3,0.2,0.5c-2.6,7.7-4.1,15.5-4.6,23.6c0,0.1,0.1,0.2,0.2,0.2c0.1,0,0.2,0,0.2-0.1c2.6-7,6.2-13.4,10.9-19.3
	c0.2-0.3,0.4-0.3,0.7-0.1c81.6,54.2,81.9,174.8-0.3,228.6C883.1,450.4,849.9,457.4,813.8,451.7z"/>
<path class="st23" d="M630.7,211.5c-5,5.7-9.9,10-14.5,12.9c-7,4.4-15.1,8.9-21,13.5c-7.8,6.1-15,13.6-21.6,22.5l4.8-58.3
	c0-0.4-0.2-0.6-0.6-0.7c-12.7-0.9-25.4-0.9-38.1,0.1c-0.4,0-0.8,0.4-0.8,0.9c0.1,10.2-0.6,20.1,0,30.4c0.4,7.7,0.5,15.5,0.3,23.2
	c-0.3,8.8,0.2,18-0.2,27c0,0.4,0.2,0.5,0.5,0.5l22.6,0.2l-1.4,4.9l-20.1,0.2c-1,0-1.5,0.5-1.5,1.5l0,50.6c-1.7,0.3-3.4,1.4-5.1,3.4
	l0-55.1c0-0.3-0.2-0.5-0.5-0.5c-8.8-0.3-18.1,0.2-26.8-1.1c-3.1-0.5-5.9-0.7-8.2-0.7c-15.2-0.1-30.3,0-45.5,0.2
	c-5.8,0.1-13.1,1.1-19.6,0.9c-0.6,0-1.2,0.5-1.2,1.1c0,0,0,0.1,0,0.1c0.3,6.9,0.5,13.5,0.7,20c0.2,9.6-0.3,22.3-0.1,33.5
	c0.1,2.3,0.5,3.4,3,3.3c10-0.4,22.1-0.3,36.5,0c0.4,0,0.7-0.1,0.9-0.4c2-2.4,3.7-4.9,7.3-5c3.1,0,10.9-0.6,12.5,2
	c0.6,1,1.3,1.8,2.1,2.6c0.3,0.2,0.6,0.3,0.9,0.4c11.1,0.4,22.2,0.5,33.3,0.1c1.2,0,2.5-0.6,3.9-0.6c-6.1,6.2-12.5,12.2-19.1,17.9
	l-80.5,0.1c-0.2-5.7-2-11.3-5.4-16.9c-1.4-2.3-3.1-2.2-1.5-5.5c1-2.1,1.2-4.3,0.5-6.5c0.6-1.3,0.8-2.6,0.6-4.2
	c-1.1-13.3-0.3-27.8,0.1-41.2c0-0.2-0.1-0.4-0.4-0.4l-30.3,0.2c-0.2,0-0.4,0.2-0.4,0.4c0,0,0,0,0,0l3,34.4c-4-0.2-8.6-0.2-13.9,0
	c-3.9,0.2-7.4,1.2-10.6,3.2c-0.3,0.2-0.5,0.2-0.8,0c-8.6-5.3-17.9,4.4-14.6,13.3c0.1,0.3,0,0.6-0.2,0.8c-6.1,6.8-9.3,14.7-9.9,23.9
	c0,0.4-0.1,0.7-0.4,0.9c-8,9.8-3.2,24.8,0.4,35.1c0.1,0.3,0.4,0.5,0.7,0.4c18.8-4.5,36.4-7.4,55.5-6.6c-0.5,1.5-0.6,3.5-0.2,6.2
	l-24.1-2.3c-0.8-0.1-1.3,0.2-1.5,1l-2.8,7.3c-0.1,0.3-0.3,0.5-0.6,0.6c-2.3,0.7-4.3,1.8-6.2,3.3c-1.1,0.9-2.3,1.5-3.6,1.9
	c-20.4,6.6-13.2,30.6-7.1,44.6c3,6.7,4.9,11.9,5.5,19.5c1.6,19.5,3.6,39.4,6,59.5c-4,6.1-8.7,12.6-14.2,19.4
	c-9.4,11.5-15.7,27.2-3.6,39.7c7.7,8,20.2,8.2,30,9.5c32.8,4.5,66.7,1.4,99.1-4.5c0.3-0.1,0.6,0.1,0.7,0.4l19.2,39.4
	c-1.9,0.7-3.5,1.1-4.8,1.1c-59.6,0-119.2,0-178.8,0c-5.3,0-9.1-0.4-11.6-1.2c-21.2-7-21.1-37.9,0.6-44.7c7.7-2.4,19.6-0.9,28.1-1.3
	c0.3,0,0.5-0.2,0.5-0.6c0-65.6,0-131.2,0-196.8c0-3.4-0.6-7.8-0.3-11.8c0.3-5.3,0.5-8.2,0.4-8.8c-0.1-64-0.2-128-0.1-192
	c0-0.3,0.2-0.6,0.5-0.6c9.7-1.2,19.2-3.1,28.6-5.5c1.4-0.4,1.6-1.1,0.6-2.1c-8-8-16.3-15.3-24.8-21.8c13.5-8.8,21.7-20.9,24.6-36.4
	c8.2,0.2,16.5,0.7,24.6,0.4c20-0.8,33.1-1.1,39.3-1c8.5,0.2,18.6-0.3,24.1-0.3c52.1,0,104.2,0,156.3,0c16.5,0,19.6,8.4,19.3,23.2
	C629.7,163.3,629.9,187.2,630.7,211.5z M428.9,186.9c0.4-8.5,0.3-17-0.3-25.5c-0.9-12.8-1.2-25.4-0.6-38.7c0-0.7-0.3-1.1-1-1.1
	l-43.6,0c-0.2,0-0.4,0.1-0.4,0.3c-0.1,1.4-0.1,2.9,0,4.4c1.9,21.3,3.7,42.7,5.5,64c0.2,2.1,0.4,3.8,0.6,5.2c0.1,0.4,0.3,0.6,0.7,0.6
	c8.7,0.2,17.3,0.3,26,0.2c4,0,8.3,0.7,12.5,0.9c0.5,0,0.9-0.3,0.9-0.8c0,0,0-0.1,0-0.1C429,193.3,428.8,190.2,428.9,186.9z
	 M449,197.1c4-0.1,8.6,0.3,12.9,0.3c4.7-0.1,7.9-0.1,9.7,0c21.2,0.7,42.6-1.3,61.9-0.9c0.3,0,0.5-0.1,0.5-0.5
	c0.4-7.4,0.6-14.9,0.5-22.3c-0.3-19.1-0.2-34.2-0.3-51.4c0-0.4-0.3-0.6-0.7-0.7l-100.3,0c-0.4,0-0.6,0.2-0.6,0.6
	c0.4,10.3,0.4,22.3,0,35.9c0,1-0.2,1.7-0.6,2.3c-0.2,0.3-0.3,0.6-0.3,0.9l0.1,34.8c0,0.8,0.6,1.4,1.4,1.4c0,0,0,0,0,0
	C438.4,197.4,443.7,197.3,449,197.1z M538.9,164.5c-0.4,10.4-0.3,20.9,0.3,31.4c0,0.4,0.3,0.7,0.7,0.7l38.1-0.3
	c0.6,0,0.9-0.3,0.9-0.8l6.2-72.1c0.1-0.8-0.5-1.5-1.3-1.6c0,0-0.1,0-0.1,0h-44c-0.4,0-0.6,0.2-0.6,0.6
	C539.2,136.4,539.5,149.4,538.9,164.5z M479.3,200.6c-15.8,0.2-31.6,0.2-47.4,0.1c-0.1,0-0.3,0.1-0.3,0.3l1,82.6
	c0,0.3,0.1,0.4,0.4,0.4c3.8,0,9.9,0.2,18.5,0.7c8.1,0.5,21.6,0.6,40.8,0.4c11.6-0.2,27.3-1.7,41.1-1.2c0.4,0,0.6-0.2,0.6-0.5
	c0.3-27.1,1-54.5,0-81.6c0-0.4-0.2-0.5-0.5-0.5C515.3,201.5,497.2,200.4,479.3,200.6z M428.6,215.3c-0.1-4.1,0.4-9.4,0-14.2
	c0-0.3-0.3-0.6-0.6-0.6c-4.1,0-8.2,1.6-12.2,0.6c-1.6-0.4-3.2-0.5-4.8-0.5c-6.4,0-12.8-0.2-19.4,0c-1.1,0-2,1-2,2.1c0,0,0,0.1,0,0.1
	l6.8,80.3c0,0.3,0.3,0.6,0.7,0.6l30.3,0c0.4,0,0.6-0.3,0.6-0.6c0,0,0,0,0,0c-0.1-5.2-0.1-10.4,0.1-15.8c0.1-2,0.6-5.2,0.4-7.9
	c-0.2-3-0.3-5-0.3-5.8C428.8,240.8,428.9,228.1,428.6,215.3z"/>
<path class="st20" d="M428.9,186.9c-0.2,3.3,0,6.4,0.3,9.5c0,0.5-0.3,0.9-0.8,1c0,0-0.1,0-0.1,0c-4.2-0.2-8.5-0.9-12.5-0.9
	c-8.7,0.1-17.3,0-26-0.2c-0.4,0-0.6-0.2-0.7-0.6c-0.2-1.4-0.4-3.2-0.6-5.2c-1.8-21.3-3.7-42.7-5.5-64c-0.1-1.5-0.1-2.9,0-4.4
	c0-0.2,0.2-0.3,0.4-0.3l43.6,0c0.7,0,1.1,0.4,1,1.1c-0.6,13.2-0.2,25.9,0.6,38.7C429.2,169.9,429.3,178.4,428.9,186.9z"/>
<path class="st20" d="M449,197.1c-5.3,0.2-10.6,0.3-15.8,0.4c-0.8,0-1.4-0.6-1.4-1.3c0,0,0,0,0,0l-0.1-34.8c0-0.3,0.1-0.6,0.3-0.9
	c0.4-0.6,0.6-1.3,0.6-2.3c0.4-13.6,0.4-25.5,0-35.9c0-0.4,0.2-0.6,0.6-0.6l100.3,0c0.4,0,0.7,0.3,0.7,0.7c0.1,17.1,0,32.2,0.3,51.4
	c0.1,7.4,0,14.9-0.5,22.3c0,0.3-0.2,0.5-0.5,0.5c-19.3-0.4-40.7,1.6-61.9,0.9c-1.8-0.1-5-0.1-9.7,0C457.6,197.4,453,197,449,197.1z"
	/>
<path class="st20" d="M538.9,164.5c0.6-15.1,0.3-28,0.2-42.2c0-0.4,0.2-0.6,0.6-0.6h44c0.8,0,1.4,0.6,1.4,1.4c0,0,0,0.1,0,0.1
	l-6.2,72.1c0,0.6-0.4,0.8-0.9,0.8l-38.1,0.3c-0.4,0-0.7-0.3-0.7-0.7C538.6,185.4,538.5,174.9,538.9,164.5z"/>
<path class="st20" d="M265.4,123.5c1.8,5.5,4.2,10.6,7.4,15.3c0.3,0.4,0.7,0.6,1.2,0.4c24.1-7.3,47.9-0.1,68,14.6
	c8.6,6.5,16.8,13.8,24.8,21.8c1,1,0.8,1.7-0.6,2.1c-9.4,2.4-19,4.2-28.6,5.5c-0.3,0-0.5,0.3-0.5,0.6c-0.1,64-0.1,128,0.1,192
	c0,0.6-0.1,3.5-0.4,8.8c-0.2,4,0.3,8.4,0.3,11.8c0,65.6,0,131.2,0,196.8c0,0.4-0.2,0.5-0.5,0.6c-8.4,0.3-20.4-1.2-28.1,1.3
	c-21.7,6.8-21.8,37.7-0.6,44.7c2.5,0.8,6.4,1.2,11.6,1.2c59.6,0,119.2,0,178.8,0c1.3,0,2.9-0.4,4.8-1.1c10,19.8,17.8,35.8,23.5,47.8
	c0.7,1.5,2.4,1.9,5,1.3l3.6,17.3l-3,1.5c-0.3,0.1-0.4,0.4-0.4,0.7c0,0.3,0.1,0.6,0.3,0.9c-3.4,0.8-6.8,1.7-10.3,2.1
	c-78.3,7.5-157.2-10.5-222.3-54.5C141.2,549.8,102.6,339.2,212,181.9c0.4-0.6,0.3-0.9-0.4-1c-4.1-0.7-9.4-1.2-13.1-3.6
	c-1-0.6-1.4-1.9-1.1-3c5-15.1,17.5-17.2,31.8-17.2c0.9,0,1.7-0.1,2.5-0.4c0.3-0.1,0.6-0.3,0.8-0.5c7.2-8.4,14.8-16.3,23-23.6
	C258.2,130.2,261.6,126,265.4,123.5z M247.5,406.9c0.3-0.4,0.9-0.5,1.3-0.2c9.5,6.3,26.2,15,37.9,13c0.7-0.1,20.6-5.2,21.1-7.3
	c0.1-0.4-0.1-0.6-0.5-0.4l-12.6,4c-0.4,0.1-0.9-0.1-1-0.5c0,0,0-0.1,0-0.1c-2-10.9-7.2-20-15.6-27.1c-0.2-0.2-0.5-0.2-0.7,0.1
	c-0.2,0.2-0.2,0.4,0,0.6c2.8,3.6,6.4,7.2,8.6,10.6c3.1,5,5.3,10.4,6.6,16.2c0.1,0.3,0,0.5-0.3,0.7c-11.4,5.2-27.3-2.4-37.8-8.5
	c-15.4-9-28.5-20.7-39.4-35.1c-7-9.3-13.3-19.1-18.8-29.3c-0.2-0.4-0.5-0.5-0.8-0.2c-0.4,0.3-0.5,0.9-0.2,1.3c0,0,0.1,0.1,0.1,0.1
	c1.5,1.5,1.9,3.9,2.7,5.4c11.6,22.3,27.7,40.6,48.5,54.8c0.3,0.2,0.3,0.4,0.1,0.7c-3.9,4.6-8.8,7-14.7,7.2c-3.2,0.1-6.6-1.4-9.9-2
	c-0.3-0.1-0.7,0.2-0.7,0.5c-0.1,0.3,0.1,0.6,0.4,0.7c5,2.3,9.8,2.9,14.5,1.7C240.6,412.7,244.8,410.7,247.5,406.9z"/>
<path class="st20" d="M479.3,200.6c17.9-0.2,36,0.9,54.1,0.7c0.4,0,0.5,0.2,0.5,0.5c1,27.1,0.3,54.4,0,81.6c0,0.4-0.2,0.6-0.6,0.5
	c-13.9-0.6-29.5,1-41.1,1.2c-19.1,0.2-32.7,0.1-40.8-0.4c-8.6-0.5-14.7-0.7-18.5-0.7c-0.3,0-0.4-0.1-0.4-0.4l-1-82.6
	c0-0.1,0.1-0.3,0.3-0.3C447.7,200.7,463.5,200.7,479.3,200.6z"/>
<path class="st20" d="M428.6,215.3c0.3,12.7,0.2,25.5-0.3,38.2c0,0.9,0.1,2.8,0.3,5.8c0.2,2.7-0.3,5.9-0.4,7.9
	c-0.2,5.4-0.3,10.6-0.1,15.8c0,0.4-0.3,0.7-0.6,0.7c0,0,0,0,0,0l-30.3,0c-0.3,0-0.6-0.3-0.7-0.6l-6.8-80.3c-0.1-1.1,0.7-2.1,1.9-2.2
	c0,0,0.1,0,0.1,0c6.6-0.2,13,0,19.4,0c1.6,0,3.2,0.2,4.8,0.5c4,0.9,8.1-0.6,12.2-0.6c0.3,0,0.6,0.3,0.6,0.6
	C429,205.9,428.6,211.2,428.6,215.3z"/>
<path class="st20" d="M573.6,260.4c-4.2,7-8,14.8-11.3,23.3l-22.6-0.2c-0.4,0-0.5-0.2-0.5-0.5c0.4-9-0.1-18.2,0.2-27
	c0.3-7.8,0.2-15.5-0.3-23.2c-0.6-10.3,0.1-20.2,0-30.4c0-0.5,0.3-0.8,0.8-0.9c12.7-0.9,25.4-1,38.1-0.1c0.4,0,0.6,0.3,0.6,0.7
	L573.6,260.4z"/>
<path class="st20" d="M534.2,344.4c-0.3,0-0.6,0.3-0.8,0.8c-1.4,0-2.7,0.6-3.9,0.6c-11.1,0.3-22.2,0.3-33.3-0.1
	c-0.3,0-0.6-0.1-0.9-0.4c-0.8-0.7-1.5-1.6-2.1-2.6c-1.6-2.6-9.5-2-12.5-2c-3.6,0-5.3,2.5-7.3,5c-0.2,0.3-0.5,0.4-0.9,0.4
	c-14.4-0.4-26.5-0.4-36.5,0c-2.5,0.1-3-0.9-3-3.3c-0.3-11.2,0.3-23.9,0.1-33.5c-0.1-6.4-0.4-13.1-0.7-20c0-0.6,0.5-1.2,1.1-1.2
	c0,0,0.1,0,0.1,0c6.5,0.2,13.8-0.8,19.6-0.9c15.2-0.2,30.3-0.3,45.5-0.2c2.3,0,5.1,0.2,8.2,0.7c8.7,1.3,18,0.8,26.8,1.1
	c0.3,0,0.5,0.2,0.5,0.5L534.2,344.4z"/>
<path class="st20" d="M427.4,334.3c-2.4-5.6-7.8-11.1-13.7-6c-0.3,0.2-0.5,0.2-0.8,0c-3.4-2.7-7.7-4.3-12.8-4.7l-3-34.4
	c0-0.2,0.2-0.5,0.4-0.5c0,0,0,0,0,0l30.3-0.2c0.2,0,0.4,0.1,0.4,0.4c-0.4,13.5-1.2,27.9-0.1,41.2
	C428.1,331.7,427.9,333.1,427.4,334.3z"/>
<path class="st20" d="M560.9,288.7c-5.3,19.3-4.8,38.6,1.5,57.7c-3.4-0.5-6.8-0.6-10.1-0.2c-3.6-3.8-7.9-5.6-13-5.2l0-50.6
	c0-1,0.5-1.5,1.5-1.5L560.9,288.7z"/>
<path class="st24" d="M400,323.6c5.1,0.5,9.4,2,12.8,4.7c0.3,0.2,0.6,0.2,0.8,0c5.9-5.1,11.3,0.4,13.7,6c0.7,2.2,0.5,4.4-0.5,6.5
	c-1.6,3.3,0.1,3.2,1.5,5.5c3.4,5.6,5.2,11.2,5.4,16.9c0.4,2,1.4,3.7,2.7,5.1c9.1,9.6,3.8,22.8-2.1,32.2c-0.3,0.4-0.8,0.6-1.3,0.4
	c-8.3-3.7-17.2-5.8-26.7-6.4c-19-0.8-36.7,2.1-55.5,6.6c-0.3,0.1-0.6,0-0.7-0.4c-3.6-10.3-8.5-25.4-0.4-35.1
	c0.2-0.3,0.3-0.6,0.4-0.9c0.5-9.1,3.8-17.1,9.9-23.9c0.2-0.2,0.3-0.5,0.2-0.8c-3.3-8.9,6-18.6,14.6-13.3c0.3,0.2,0.5,0.2,0.8,0
	c3.2-1.9,6.7-3,10.6-3.2C391.4,323.4,396,323.4,400,323.6z M420.1,354.1l-46.4,0.4c-1.5,0-2.7,1.2-2.7,2.7c0,0,0,0,0,0l0.1,5.7
	c0.1,14.4,11.8,26,26,25.8h0.2c14.2-0.1,25.6-11.9,25.5-26.3c0,0,0,0,0,0l0-5.7C422.7,355.3,421.5,354.1,420.1,354.1z"/>
<path class="st25" d="M539.3,341c5.1-0.4,9.4,1.3,13,5.2c2.3,6.8,2.5,12.2-3.7,17l-4,2.4c-0.3,0.2-0.6,0.2-0.9,0
	c-1.1-0.7-2.2-0.6-3.4,0.1c-0.3,0.2-0.7,0.1-0.9-0.2c0,0,0-0.1,0-0.1c-0.3-0.7-0.9-1.1-1.6-1.1c-0.4,0-0.7,0.1-0.9,0.4l-23.7,24.1
	c-0.2,0.2-0.5,0.3-0.8,0.3l-0.3,0c-1.7-6.8-3-13.6-3.9-20.3c2.6-1.4,4.6-3.3,6.1-5.6c6.6-5.7,13-11.7,19.1-17.9
	c0.2-0.5,0.4-0.8,0.8-0.8C535.8,342.4,537.5,341.3,539.3,341z"/>
<path class="st26" d="M247.5,406.9c-2.7,3.8-6.9,5.8-11.5,6.9c-4.7,1.1-9.6,0.6-14.5-1.7c-0.3-0.1-0.5-0.5-0.3-0.8
	c0.1-0.3,0.4-0.4,0.7-0.4c3.3,0.5,6.7,2.1,9.9,2c5.9-0.2,10.8-2.6,14.7-7.2c0.2-0.3,0.2-0.5-0.1-0.7c-20.7-14.3-36.9-32.5-48.5-54.8
	c-0.8-1.5-1.2-3.9-2.7-5.4c-0.4-0.4-0.4-1,0-1.4c0,0,0.1-0.1,0.1-0.1c0.3-0.2,0.6-0.2,0.8,0.2c5.5,10.2,11.8,20,18.8,29.3
	c10.8,14.4,24,26.1,39.4,35.1c10.5,6.2,26.4,13.7,37.8,8.5c0.3-0.1,0.4-0.4,0.3-0.7c-1.2-5.9-3.4-11.3-6.6-16.2
	c-2.2-3.4-5.8-7.1-8.6-10.6c-0.2-0.2-0.1-0.5,0.1-0.7c0.2-0.1,0.5-0.1,0.6,0c8.4,7.2,13.6,16.2,15.6,27.1c0.1,0.4,0.5,0.7,0.9,0.6
	c0,0,0.1,0,0.1,0l12.6-4c0.4-0.1,0.5,0,0.5,0.4c-0.4,2.1-20.4,7.1-21.1,7.3c-11.7,2-28.3-6.7-37.9-13
	C248.4,406.4,247.8,406.5,247.5,406.9z"/>
<path class="st23" d="M562.4,346.4c8.4,23.9,27,46.4,50.8,56.7c0.3,0.1,0.7,0.1,1,0c7.1-3,14.4-5.2,22-6.6c0.1,0,0.3,0,0.3,0.2
	c0,0.1,0,0.3-0.2,0.3c-4.7,2.5-9,5.4-13.1,8.7c-0.4,0.3-0.4,0.9-0.1,1.3c0.1,0.1,0.3,0.2,0.4,0.3l5.9,1.8c0.9,3.1,1.1,6.2,0.8,9.3
	c-4.3,3-10.1,5.6-15.4,4.3c-19.2-4.7-36.4,5-39.9,25c-0.1,0.8,0.3,1.6,1,1.9l6.3,2.7c0.2,0.1,0.3,0.3,0.2,0.6
	c-0.1,0.2-0.2,0.3-0.4,0.3l-6.3-0.3c-0.5,0-0.9,0.4-1,0.9c0,0,0,0.1,0,0.1c1.5,12.7,11.1,19.5,9.9,33.1c-0.4,4.3-1.3,9.2-1,13.1
	c1.4,20.6,21.2,31.7,40.5,25.9c3.1-0.9,1.9-3.2,3.5-5.1c0.3-0.3,0.4-0.3,0.5,0.2c0.1,1.8,0.6,2.6,1.5,2.6
	c0.5,23.4,0.6,46.6,0.5,69.6c0,0.4,0.2,0.6,0.5,0.6c8.4,0,16.8,0.1,25.1,0.2c5.9,0.1,10.3,0.6,13,1.6c20.5,7.6,19.6,37.2-0.7,44.1
	c-2.7,0.9-6.5,1.4-11.6,1.4c-31.4,0-62.7,0-94.1,0c-0.3-1.9-1-3.6-2-5.3c-0.2-0.3-0.2-0.6,0-0.9c0.3-0.5,0.3-0.9,0-1.3l3.3-1.9
	c0.4-0.2,0.5-0.7,0.3-1.1L544.5,591l0.5-0.5c0.2-0.2,0.3-0.5,0.3-0.7c6.5-74.9,12.9-149.9,19.1-224.8c0.1-1.5-0.6-2.1-2-2
	c-3.7,0.3-8.3,0.4-13.6,0.2c6.1-4.8,5.9-10.2,3.7-17C555.6,345.8,559,345.9,562.4,346.4z M570.6,576.7c-8.8,2.8-4.9,13.3,3.4,11.6
	c0.3-0.1,0.7,0.2,0.7,0.5c0,0,0,0,0,0c0.7,3.3,1.6,8.8,4.8,8.8c2.7,0.1,15.4,1.3,19.9-0.7c0.3-0.1,0.5-0.4,0.7-0.7
	c2-5.3,3.7-10.8,5.1-16.3c1.4-5.5-5-5.2-8.4-5c-6.7,0.3-13.3,0.2-20,0.2C574.6,575.2,572.7,576,570.6,576.7z"/>
<path class="st25" d="M420.1,354.1c1.5,0,2.7,1.2,2.7,2.6l0,5.7c0.1,14.4-11.3,26.2-25.5,26.3c0,0,0,0,0,0h-0.2
	c-14.2,0.1-25.9-11.4-26-25.8l-0.1-5.7c0-1.5,1.2-2.7,2.6-2.7c0,0,0,0,0,0L420.1,354.1z"/>
<path class="st20" d="M514.3,363.1c-1.5,2.3-3.5,4.2-6.1,5.6c0.1-1,0.2-1.5,0.2-1.6c-0.5-1-1.2-1.1-2-0.4
	c-13.4,11.5-26.5,23-39.4,34.3c-1.4,1.3-3.4,2.5-5.6,3c-16.3,3.7-32.6,7.6-48.9,11.5c-0.3,0.1-0.5,0-0.6-0.4
	c-1-4.6-1.1-11.9-5.6-14.4c-0.4-2.7-0.3-4.7,0.2-6.2c9.5,0.6,18.4,2.8,26.7,6.4c0.5,0.2,1,0,1.3-0.4c5.9-9.4,11.1-22.6,2.1-32.2
	c-1.4-1.5-2.3-3.2-2.7-5.1L514.3,363.1z"/>
<path class="st20" d="M544.5,591c-10.4-21.2-20.9-42.4-31.4-63.5c-2.5-5-4.8-8.5-6.9-10.6c-7.9-7.8-19.2-8.5-28.7-2.6
	c-3.2,2-6.3,3.9-9.4,5.9c-2.7-0.9-5.2-2.3-7.4-4.3l1.7-0.7c0.3-0.1,0.5-0.5,0.4-0.8c0-0.1-0.1-0.2-0.3-0.3l-22.6-14.7
	c-0.3-0.2-0.4-0.5-0.4-0.8c3.6-17,6.3-36.8-4.7-51.9c-0.1-0.1-0.1-0.2,0-0.3c0,0,0.1,0,0.1,0c11.8-1.6,23.3-3.7,34.3-6.1
	c3-0.6,4.8-1.8,6.8-3.8c13.6-13.9,24.8-30.4,35.7-46.4c0.1-0.2,0.2-0.4,0.3-0.7c0-0.2,0.1-0.3,0.1-0.5l0.3,0c0.3,0,0.6-0.1,0.8-0.3
	l23.7-24.1c0.3-0.3,0.6-0.4,0.9-0.4c0.7,0,1.3,0.4,1.6,1.1c0.1,0.3,0.5,0.5,0.8,0.3c0,0,0.1,0,0.1,0c1.2-0.7,2.4-0.7,3.4-0.1
	c0.3,0.2,0.6,0.2,0.9,0l4-2.4c5.4,0.2,9.9,0.1,13.6-0.2c1.5-0.1,2.2,0.5,2,2c-6.2,75-12.6,149.9-19.1,224.8c0,0.3-0.1,0.5-0.3,0.7
	L544.5,591z"/>
<path class="st22" d="M508.2,368.7c0.9,6.7,2.2,13.5,3.9,20.3c-0.1,0.1-0.1,0.3-0.1,0.5c0,0.3-0.1,0.5-0.3,0.7
	c-10.9,16-22.1,32.5-35.7,46.4c-2,2.1-3.8,3.2-6.8,3.8c-11,2.4-22.5,4.5-34.3,6.1c-0.1,0-0.2,0.1-0.2,0.2c0,0,0,0.1,0,0.1
	c11,15,8.3,34.9,4.7,51.9c-0.1,0.4,0,0.6,0.4,0.8l22.6,14.7c0.3,0.2,0.4,0.6,0.2,0.9c-0.1,0.1-0.2,0.2-0.3,0.3l-1.7,0.7l-18.4,9.6
	c-2-0.1-4.4-0.8-7.1-2L424,520c-0.3-0.1-0.6-0.1-0.9,0c-15.3,5.6-30.7,10.8-46.4,15.5c-1.1-0.3-2.7-0.1-4.8,0.6
	c-2.4-20.1-4.4-39.9-6-59.5c-0.6-7.6-2.6-12.8-5.5-19.5c-6.2-13.9-13.4-37.9,7.1-44.6c1.3-0.4,2.5-1,3.6-1.9
	c1.9-1.4,3.9-2.5,6.2-3.3c0.3-0.1,0.5-0.3,0.6-0.6l2.8-7.3c0.3-0.7,0.8-1,1.5-1l24.1,2.3c4.5,2.5,4.5,9.8,5.6,14.4
	c0.1,0.3,0.3,0.5,0.6,0.4c16.3-4,32.6-7.8,48.9-11.5c2.2-0.5,4.2-1.8,5.6-3c12.9-11.3,26-22.7,39.4-34.3c0.8-0.7,1.5-0.6,2,0.4
	C508.4,367.1,508.4,367.7,508.2,368.7z"/>
<path class="st20" d="M629.5,408.9c11,2.9,19.1,2.4,29.2,3c11.6,0.8,24.4,1.4,36.6,3.4c0.6,0.1,1.1,0.3,1.6,0.7l-7.3,19.2
	c-9.5-16.2-27.2-25.9-46-22.3c-4.1,0.8-2.4,3.9-1.5,6.3c0.2,0.5,0.1,0.6-0.3,0.2c-1.5-1.2-2.5-2.7-3.1-4.4c-0.1-0.3-0.5-0.5-0.8-0.4
	c0,0,0,0-0.1,0l-7.5,3.5C630.6,415.1,630.4,412,629.5,408.9z"/>
<path class="st22" d="M689.6,435.2c0.9,2.3,4.4,11,3.9,13.2c-0.1,0.3-0.1,0.7,0,1c1.9,12.3-0.9,23.1-8.4,32.4
	c-2.8,3.4-6.8,6.7-10.3,9.9l-7.7,3.4c-10.7,4.8-20.1,11.4-28.2,19.8c-2.7,3.5-5.8,6.4-9.1,8.8c-0.9,0-1.4-0.8-1.5-2.6
	c0-0.4-0.2-0.5-0.5-0.2c-1.6,1.9-0.5,4.1-3.5,5.1c-19.2,5.9-39.1-5.3-40.5-25.9c-0.3-3.9,0.6-8.8,1-13.1c1.2-13.6-8.4-20.4-9.9-33.1
	c-0.1-0.5,0.3-1,0.8-1c0,0,0.1,0,0.1,0l6.3,0.3c0.2,0,0.4-0.2,0.5-0.4c0-0.2-0.1-0.4-0.3-0.4l-6.3-2.7c-0.7-0.3-1.2-1.1-1-1.9
	c3.5-20,20.7-29.8,39.9-25c5.3,1.3,11.1-1.3,15.4-4.3l7.5-3.5c0.3-0.2,0.7,0,0.8,0.3c0,0,0,0,0,0.1c0.6,1.7,1.6,3.2,3.1,4.4
	c0.4,0.3,0.5,0.2,0.3-0.2c-0.9-2.5-2.7-5.6,1.5-6.3C662.4,409.3,680.1,419,689.6,435.2z"/>
<path class="st27" d="M785.1,443.5c0.8,20.4,3.7,40.3,8.8,59.5c0.9,2.8,1.6,4.9,0.3,7.8c-20.6,46.9-50.3,87.2-89,120.8
	c-1.6,1.4-3.2,2.8-4.6,4c-5.6-8.7-9-14.3-10.3-16.7c-10.6-20.4-16.9-42.1-18.9-65.1c0-0.3-0.2-0.6-0.4-0.9l-32.2-38.1
	c8.1-8.4,17.5-15,28.2-19.8l5.4,6.8c0.2,0.2,0.5,0.3,0.7,0.1c0.1-0.1,0.2-0.2,0.2-0.3l1.4-10c3.5-3.2,7.5-6.4,10.3-9.9
	c7.4-9.3,10.2-20.1,8.4-32.4c-0.1-0.3,0-0.7,0-1c0.5-2.2-3-10.9-3.9-13.2l7.3-19.2c0.9-0.3,1.6-0.4,2.1-0.3
	c30.9,5.2,57.7,14.4,84.9,27.2C784.5,443.3,784.9,443.4,785.1,443.5z"/>
<path class="st20" d="M785.1,443.5c9.6,3.7,19.2,6.4,28.7,8.2c-4.8,17-9,33.5-16,50.1c-0.3,0.7-1,1.2-1.5,1.1
	c-0.2,0-0.3-0.1-0.4-0.3c-0.3-0.5-0.9-0.3-1.9,0.4C788.8,483.7,785.9,463.9,785.1,443.5z"/>
<path class="st20" d="M674.8,491.7l-1.4,10c0,0.3-0.3,0.5-0.6,0.4c-0.1,0-0.2-0.1-0.3-0.2l-5.4-6.8L674.8,491.7z"/>
<path class="st24" d="M544.5,591l19.7,39.4c0.2,0.4,0.1,0.9-0.3,1.1l-3.3,1.9l-12.3,6.9l-3.7,2c-0.8,0.4-1.8,0.2-2.2-0.6l-9.2-15.3
	c-0.1-0.1-0.2-0.1-0.3-0.1c-0.1,0-0.1,0.1-0.1,0.2l18.4,59.6c0.1,0.4-0.1,0.8-0.5,0.9c0,0-0.1,0-0.1,0l-4,0.5l-15,1.3
	c-2.6,0.7-4.3,0.3-5-1.3c-5.7-12-13.5-28-23.5-47.8l-19.2-39.4c-0.1-0.3-0.4-0.4-0.7-0.4c-32.4,5.9-66.3,8.9-99.1,4.5
	c-9.8-1.3-22.3-1.5-30-9.5c-12-12.5-5.7-28.2,3.6-39.7c5.5-6.8,10.3-13.2,14.2-19.4c2.1-0.6,3.7-0.8,4.8-0.6l56.4,1.1
	c0.6-0.1,1.3-0.1,2,0.2c0.4,0.2,0.5,0.4,0.5,0.8l-0.2,2.1c0,0.4,0.1,0.6,0.5,0.3l13.9-8.6c0.9,0.1,1.5,0,2.3,0.4
	c6.8,3.6,13.6,7.2,20.4,10.8c0.3,0.2,0.5,0.4,0.5,0.7c0.3,1.4,0.6,2.8,0.9,4.2c1.9,6.9,9,10.1,15.4,7.9c9.7-3.4,11.3-17.7,1.4-22.2
	c-7.9-3.6-15.5-7.9-22.6-12.9c3.1-2,6.2-3.9,9.4-5.9c9.6-5.9,20.8-5.2,28.7,2.6c2.1,2,4.4,5.6,6.9,10.6
	C523.6,548.7,534.1,569.8,544.5,591z"/>
<path class="st20" d="M638.9,514.8l32.2,38.1c0.2,0.3,0.3,0.6,0.4,0.9c2,23,8.3,44.7,18.9,65.1c1.3,2.5,4.7,8.1,10.3,16.7
	c-38.3,31.7-81.4,53.9-129.3,66.6c-3.5,0.9-7.9,1.9-13.1,2.9c-0.3,0.1-0.6,0.2-0.8,0.5c-0.4,0.6-0.4,1.4,0,2.2l-3.8-0.9
	c-0.3-0.1-0.6-0.3-0.7-0.6l-3.3-7.2c-1.2-1.9-1.9-3.2-2-5.7c0-1.8-0.4-3.7-1.2-5.7l4-0.5c0.4-0.1,0.7-0.4,0.6-0.8c0,0,0-0.1,0-0.1
	l-18.4-59.6c0-0.1,0-0.2,0.1-0.2c0.1,0,0.2,0,0.2,0.1l9.2,15.3c0.5,0.8,1.4,1,2.2,0.6l3.7-2c0.3,4.2,1.8,8,4.5,11.5l-2.7,1.7
	c-0.3,0.2-0.4,0.5-0.3,0.8l9.8,27.8c0.1,0.4,0.4,0.5,0.8,0.3l7.2-2.9c0.5-0.2,0.7-0.6,0.6-1.1l-1.8-7.2c-0.1-0.2,0.1-0.5,0.3-0.5
	c0.1,0,0.3,0,0.4,0.1l5.8,5.6c0.2,0.2,0.4,0.2,0.7,0.1c7.3-3,14.5-6.3,21.5-9.7c2.4-1.2,3.8-2.5,3.8-5.2c0-4.8-2.6-4.7-6.2-5.5
	c-6.8-1.4-13.7-2.7-20.5-3.8c-0.3,0-0.5-0.2-0.7-0.5L568,645c-0.2-0.4-0.6-0.6-0.9-0.5c-1,0.2-1.9,0.6-2.7,1.2
	c-1.4-1.4-2-2.9-1.8-4.6c31.4,0,62.7,0,94.1,0c5.1,0,8.9-0.5,11.6-1.4c20.3-6.9,21.2-36.5,0.7-44.1c-2.8-1-7.1-1.6-13-1.6
	c-8.4-0.1-16.7-0.2-25.1-0.2c-0.4,0-0.5-0.2-0.5-0.6c0.2-23.1,0-46.3-0.5-69.6C633.1,521.2,636.1,518.3,638.9,514.8z"/>
<path class="st25" d="M460.6,516c2.2,2,4.6,3.4,7.4,4.3c7.2,4.9,14.7,9.2,22.6,12.9c9.9,4.6,8.3,18.8-1.4,22.2
	c-6.5,2.3-13.5-0.9-15.4-7.9c-0.4-1.4-0.7-2.7-0.9-4.2c-0.1-0.3-0.2-0.6-0.5-0.7c-6.8-3.6-13.6-7.2-20.4-10.8
	c-0.8-0.4-1.4-0.3-2.3-0.4c0-0.1,0.1-0.2,0.1-0.3c0-0.2-0.1-0.4-0.3-0.5c-2.6-1.3-5-3-7.2-5L460.6,516z"/>
<path class="st25" d="M435.1,523.7c-1.2,4.2-1.9,8.5-2.1,12.9l-56.4-1.1c15.7-4.7,31.1-9.9,46.4-15.5c0.3-0.1,0.6-0.1,0.9,0
	L435.1,523.7z"/>
<path class="st20" d="M435.1,523.7c2.8,1.2,5.1,1.8,7.1,2c2.2,2,4.6,3.7,7.2,5c0.2,0.1,0.3,0.3,0.3,0.5c0,0.1,0,0.2-0.1,0.3
	l-13.9,8.6c-0.4,0.2-0.5,0.1-0.5-0.3l0.2-2.1c0-0.4-0.1-0.7-0.5-0.8c-0.7-0.3-1.4-0.4-2-0.2C433.2,532.2,433.9,527.9,435.1,523.7z"
	/>
<path class="st27" d="M574,588.4c-8.2,1.7-12.1-8.8-3.4-11.6c2.1-0.7,4-1.5,6.3-1.5c6.7,0,13.3,0.1,20-0.2c3.4-0.2,9.8-0.5,8.4,5
	c-1.4,5.5-3.1,11-5.1,16.3c-0.1,0.3-0.3,0.5-0.7,0.7c-4.5,1.9-17.3,0.8-19.9,0.7c-3.3-0.1-4.2-5.5-4.8-8.8
	C574.6,588.5,574.3,588.3,574,588.4C574,588.4,574,588.4,574,588.4z M573.5,586.2l-2.1-7.8c-0.1-0.2-0.3-0.4-0.6-0.3l-0.2,0
	c-2.4,0.6-3.9,3.1-3.2,5.5c0,0,0,0,0,0l0,0.1c0.6,2.4,3.1,3.8,5.5,3.1l0.2,0C573.4,586.8,573.6,586.5,573.5,586.2
	C573.5,586.2,573.5,586.2,573.5,586.2z"/>
<path class="st23" d="M573.5,586.2c0.1,0.2-0.1,0.5-0.3,0.6c0,0,0,0,0,0l-0.2,0c-2.4,0.6-4.9-0.8-5.5-3.1l0-0.1
	c-0.6-2.4,0.8-4.8,3.2-5.5c0,0,0,0,0,0l0.2,0c0.2-0.1,0.5,0.1,0.6,0.3L573.5,586.2z"/>
<path class="st25" d="M560.5,633.5c0.2,0.4,0.2,0.8,0,1.3c-0.2,0.3-0.2,0.6,0,0.9c1,1.7,1.7,3.5,2,5.3c-0.1,1.7,0.5,3.3,1.8,4.6
	l-11.6,6.1c-2.7-3.4-4.2-7.2-4.5-11.5L560.5,633.5z"/>
<path class="st24" d="M552.7,651.8l11.6-6.1c0.7-0.6,1.6-1,2.7-1.2c0.4-0.1,0.8,0.1,0.9,0.5l3.3,6.8c0.1,0.3,0.4,0.5,0.7,0.5
	c6.9,1.1,13.7,2.3,20.5,3.8c3.6,0.8,6.2,0.7,6.2,5.5c0,2.7-1.3,4-3.8,5.2c-7.1,3.5-14.3,6.7-21.5,9.7c-0.3,0.1-0.5,0.1-0.7-0.1
	l-5.8-5.6c-0.2-0.2-0.5-0.2-0.6,0c-0.1,0.1-0.1,0.3-0.1,0.4l1.8,7.2c0.1,0.5-0.1,0.9-0.6,1.1l-7.2,2.9c-0.4,0.2-0.6,0-0.8-0.3
	l-9.8-27.8c-0.1-0.3,0-0.6,0.3-0.8L552.7,651.8z"/>
<path class="st25" d="M546.5,687.7c0.8,2.1,1.2,4,1.2,5.7c0.1,2.5,0.8,3.8,2,5.7l-14.6,7.2l-3.6-17.3L546.5,687.7z"/>
<path class="st24" d="M549.7,699.2l3.3,7.2c0.1,0.3,0.4,0.5,0.7,0.6l3.8,0.9c5.6,1.1,11.2,2.3,16.9,3.4c2.2,0.4,3.8,1,4.6,1.7
	c3.1,2.5,2.2,7.2-1.5,9c-7.3,3.4-14.7,6.6-22.1,9.6c-0.3,0.1-0.5,0.1-0.8-0.2l-5.8-5.5c-0.2-0.2-0.4-0.2-0.6,0
	c-0.1,0.1-0.1,0.2-0.1,0.4l1.4,7.1c0.1,0.3-0.1,0.5-0.3,0.6l-6.9,3.2c-0.5,0.2-1,0-1.2-0.5c0,0,0-0.1,0-0.1l-9.1-27.1
	c-0.2-0.3-0.3-0.6-0.3-0.9c0-0.3,0.1-0.6,0.4-0.7l3-1.5L549.7,699.2z"/>
</svg>
